<svg xmlns="http://www.w3.org/2000/svg" viewBox="0 0 512 512" role="img" aria-labelledby="title desc">
  <title id="title">py-MARVEL sticker</title>
  <desc id="desc">OmicVerse repository hex sticker for py-MARVEL.</desc>
  <defs>
    <linearGradient id="bg" x1="112" y1="90" x2="398" y2="430" gradientUnits="userSpaceOnUse">
      <stop offset="0" stop-color="#050706"/>
      <stop offset=".58" stop-color="#020403"/>
      <stop offset="1" stop-color="#000000"/>
    </linearGradient>
  </defs>
  <polygon points="256,34 450,146 450,368 256,480 62,368 62,146" fill="#000000" opacity=".34"/>
  <polygon points="256,22 458,139 458,373 256,490 54,373 54,139" fill="url(#bg)" stroke="#0B0F0A" stroke-width="19" stroke-linejoin="round"/>
  <polygon points="256,22 458,139 458,373 256,490 54,373 54,139" fill="none" stroke="#E8FFE0" stroke-width="12" stroke-linejoin="round"/>
  <g opacity=".22" stroke="#3FD36B" stroke-width="2.2">
    <path d="M112 166h288M100 222h312M100 278h312M112 334h288"/>
    <path d="M152 126v236M204 104v274M256 96v286M308 104v274M360 126v236"/>
  </g>
  
  <g id="motif">
    <rect x="128" y="204" width="62" height="33" fill="#32D74B"/>
    <rect x="232" y="204" width="62" height="33" fill="#FFD60A"/>
    <rect x="336" y="204" width="50" height="33" fill="#00C7BE"/>
    <path d="M190 220c36-72 71-72 106 0" fill="none" stroke="#FFFFFF" stroke-width="8" stroke-linecap="round"/>
    <path d="M294 220c24-45 50-45 74 0" fill="none" stroke="#FFFFFF" stroke-width="8" stroke-linecap="round"/>
    <path d="M158 283c62 44 124 44 187 0" fill="none" stroke="#FF6961" stroke-width="8" stroke-linecap="round"/>
  </g>
  <path id="label" d="M306.11,384.43 L310.11,391.37 L305.89,393.81 L295.35,375.56 L299.58,373.12 L300.69,375.06 Q300.90,373.40 301.65,372.24 Q302.39,371.07 303.78,370.28 Q306.22,368.87 308.91,369.90 Q311.60,370.94 313.37,373.99 Q315.13,377.05 314.68,379.90 Q314.24,382.75 311.79,384.16 Q310.41,384.96 309.03,385.02 Q307.65,385.08 306.11,384.43 Z M303.98,374.25 Q302.62,375.03 302.47,376.45 Q302.32,377.87 303.40,379.75 Q304.49,381.62 305.79,382.20 Q307.09,382.78 308.45,381.99 Q309.80,381.21 309.95,379.81 Q310.09,378.40 309.00,376.51 Q307.91,374.62 306.62,374.05 Q305.33,373.47 303.98,374.25 Z M310.92,366.57 L315.15,364.13 L323.88,371.05 L321.73,360.34 L325.95,357.90 L328.74,375.58 Q329.19,378.27 328.57,379.79 Q327.97,381.32 326.14,382.37 L323.69,383.78 L322.09,381.01 L323.42,380.25 Q324.49,379.63 324.78,379.00 Q325.07,378.38 324.83,377.34 L324.74,376.90 L310.92,366.57 Z M330.32,361.43 L337.73,357.15 L339.72,360.59 L332.30,364.87 L330.32,361.43 Z M336.10,346.17 L341.88,342.83 L351.34,349.94 L349.93,338.18 L355.71,334.85 L365.88,352.47 L361.59,354.95 L354.14,342.06 L355.57,353.91 L352.69,355.57 L343.14,348.41 L350.58,361.30 L346.28,363.79 L336.10,346.17 Z M379.17,340.52 L372.07,344.62 L372.80,348.48 L368.23,351.12 L364.58,329.72 L370.00,326.59 L386.71,340.45 L382.14,343.09 L379.17,340.52 Z M371.31,340.69 L376.14,337.91 L369.68,332.29 L371.31,340.69 Z M389.84,325.56 Q391.26,324.74 391.58,323.85 Q391.89,322.96 391.19,321.74 Q390.49,320.54 389.57,320.38 Q388.65,320.21 387.23,321.04 L385.31,322.14 L387.93,326.66 L389.84,325.56 Z M389.74,329.80 L393.59,336.47 L389.04,339.10 L378.87,321.47 L385.81,317.47 Q389.29,315.46 391.59,315.69 Q393.89,315.92 395.34,318.45 Q396.35,320.19 396.15,321.80 Q395.96,323.41 394.57,324.93 Q395.62,324.60 396.79,324.92 Q397.96,325.25 399.60,326.33 L404.96,329.91 L400.12,332.71 L395.44,329.57 Q394.03,328.62 393.08,328.52 Q392.13,328.42 391.02,329.06 L389.74,329.80 Z M395.38,311.94 L399.95,309.30 L412.14,319.61 L409.29,303.91 L413.86,301.27 L417.50,322.67 L412.08,325.80 L395.38,311.94 Z M416.19,299.92 L428.46,292.84 L430.44,296.28 L422.72,300.74 L424.62,304.01 L431.88,299.82 L433.86,303.26 L426.60,307.45 L428.93,311.49 L436.91,306.88 L438.89,310.32 L426.37,317.55 L416.19,299.92 Z M432.71,290.39 L437.25,287.76 L445.45,301.96 L453.43,297.35 L455.41,300.78 L442.89,308.01 L432.71,290.39 Z" fill="#FFFFFF"/>
</svg>
